<svg xmlns="http://www.w3.org/2000/svg" xmlns:xlink="http://www.w3.org/1999/xlink" width="30" height="30" viewBox="0 0 30 30">
  <defs>
    <linearGradient id="linear-gradient" y1="0.105" x2="1.193" y2="1" gradientUnits="objectBoundingBox">
      <stop offset="0" stop-color="#d718d7"/>
      <stop offset="1" stop-color="#fd7700"/>
    </linearGradient>
  </defs>
  <g id="sns-instagram" transform="translate(-23.177)">
    <g id="WLA_icon_instagram" transform="translate(-0.061 -23.297)">
      <path id="パス_1914" data-name="パス 1914" d="M53.238,38.3c0,.246-.006.491-.018.736s-.03.489-.054.734-.054.488-.09.731-.078.485-.125.725-.1.48-.162.719-.125.474-.2.709-.148.468-.231.7-.172.46-.265.687-.193.451-.3.673-.215.441-.331.657-.236.429-.363.64-.257.418-.394.622-.278.4-.424.6-.3.391-.453.581-.316.376-.481.558-.334.359-.508.533-.351.343-.533.508-.368.325-.557.481-.384.307-.581.453-.4.288-.6.424-.412.268-.622.394-.424.247-.641.363-.436.227-.658.331-.446.2-.673.3-.456.182-.687.265-.464.16-.7.231-.472.137-.71.2-.478.114-.718.162-.483.09-.726.126-.486.066-.73.09-.49.042-.735.054-.491.018-.736.018-.491-.006-.736-.018-.49-.03-.735-.054-.487-.054-.73-.09-.485-.078-.725-.126-.48-.1-.719-.162-.475-.125-.709-.2-.468-.148-.7-.231-.46-.171-.686-.265-.451-.194-.673-.3-.441-.215-.658-.331-.43-.236-.64-.363-.418-.258-.622-.394-.4-.277-.6-.424-.39-.3-.58-.453-.376-.316-.558-.481-.359-.334-.533-.508-.343-.351-.508-.533-.325-.368-.481-.558-.307-.384-.453-.581-.288-.4-.424-.6-.267-.411-.393-.622-.248-.424-.363-.64-.226-.436-.331-.657-.2-.447-.3-.673-.182-.456-.265-.687-.16-.464-.231-.7-.137-.472-.2-.709-.113-.478-.161-.719-.09-.483-.126-.725-.066-.487-.09-.731-.042-.489-.055-.734-.018-.491-.018-.736.006-.491.018-.736.03-.49.055-.734.054-.488.09-.731.078-.484.126-.725.1-.48.161-.719.125-.474.2-.709.148-.468.231-.7.171-.46.265-.687.194-.451.3-.673.215-.441.331-.658.237-.43.363-.64.257-.418.393-.622.278-.4.424-.6.3-.391.453-.581.316-.376.481-.558.334-.359.508-.533.351-.343.533-.508.368-.325.558-.481.383-.307.58-.453.4-.288.6-.424.411-.268.622-.394.424-.247.64-.363.436-.227.658-.331.446-.2.673-.3.456-.182.686-.265.464-.16.7-.231.471-.137.709-.2.478-.114.719-.162.482-.09.725-.126.486-.066.73-.09.489-.042.735-.054.491-.018.736-.018.491.006.736.018.49.03.735.054.488.055.73.09.485.078.726.126.48.1.718.162.475.125.71.2.468.148.7.231.46.171.687.265.451.194.673.3.441.215.658.331.43.236.641.363.418.257.622.394.4.277.6.424.391.3.581.453.375.316.557.481.36.334.533.508.343.351.508.533.325.368.481.558.307.384.453.581.287.4.424.6.267.411.394.622.247.424.363.64.226.436.331.658.2.447.3.673.183.456.265.687.16.464.231.7.137.472.2.709.114.478.162.719.089.483.125.725.066.487.09.731.043.489.054.734S53.238,38.051,53.238,38.3Zm0,0" transform="translate(0 0)" fill="url(#linear-gradient)"/>
      <path id="パス_1915" data-name="パス 1915" d="M68.393,59.578c-2.415,0-2.723.01-3.671.055a6.529,6.529,0,0,0-2.158.414,4.3,4.3,0,0,0-1.578,1.029,4.434,4.434,0,0,0-1.029,1.578,6.421,6.421,0,0,0-.414,2.158c-.04.948-.055,1.25-.055,3.67s.01,2.717.055,3.671a6.524,6.524,0,0,0,.414,2.158,4.311,4.311,0,0,0,1.029,1.578,4.368,4.368,0,0,0,1.578,1.028,6.532,6.532,0,0,0,2.158.414c.948.045,1.25.055,3.671.055s2.718-.01,3.671-.055a6.567,6.567,0,0,0,2.163-.414A4.357,4.357,0,0,0,75.8,75.889a4.447,4.447,0,0,0,1.028-1.578,6.646,6.646,0,0,0,.414-2.158c.04-.948.055-1.251.055-3.671s-.01-2.718-.055-3.67a6.651,6.651,0,0,0-.414-2.158,4.564,4.564,0,0,0-2.606-2.606,6.586,6.586,0,0,0-2.163-.414C71.11,59.588,70.808,59.578,68.393,59.578Zm-.8,1.6h.8c2.375,0,2.657.01,3.6.051a4.986,4.986,0,0,1,1.653.307,2.947,2.947,0,0,1,1.689,1.689,4.963,4.963,0,0,1,.307,1.654c.04.938.051,1.22.051,3.595s-.01,2.657-.051,3.6a5,5,0,0,1-.307,1.654,2.773,2.773,0,0,1-.666,1.023,2.724,2.724,0,0,1-1.023.665,4.957,4.957,0,0,1-1.653.307c-.938.041-1.22.051-3.6.051s-2.658-.01-3.595-.051a4.991,4.991,0,0,1-1.654-.307,2.943,2.943,0,0,1-1.689-1.689,4.962,4.962,0,0,1-.308-1.654c-.04-.938-.05-1.22-.05-3.6s.01-2.657.05-3.595a4.992,4.992,0,0,1,.308-1.654,2.943,2.943,0,0,1,1.689-1.689,4.961,4.961,0,0,1,1.654-.307C65.62,61.191,65.937,61.181,67.6,61.181Zm5.546,1.477a1.069,1.069,0,1,0,1.069,1.069A1.069,1.069,0,0,0,73.142,62.659Zm-4.749,1.251a4.568,4.568,0,1,0,4.568,4.568A4.567,4.567,0,0,0,68.393,63.909Zm0,1.6a2.964,2.964,0,1,1-2.965,2.964A2.963,2.963,0,0,1,68.393,65.513Zm0,0" transform="translate(-30.154 -30.18)" fill="#fff"/>
    </g>
  </g>
</svg>
